<?xml version="1.0" standalone="no"?>
<!DOCTYPE svg PUBLIC "-//W3C//DTD SVG 20010904//EN"
 "http://www.w3.org/TR/2001/REC-SVG-20010904/DTD/svg10.dtd">
<svg version="1.0" xmlns="http://www.w3.org/2000/svg"
 width="170.000000pt" height="170.000000pt" viewBox="0 0 170.000000 170.000000"
 preserveAspectRatio="xMidYMid meet">
<metadata>
Created by potrace 1.11, written by Peter Selinger 2001-2013
</metadata>
<g transform="translate(0.000000,170.000000) scale(0.100000,-0.100000)"
fill="#000000" stroke="none">
<path d="M728 1580 c-163 -28 -344 -131 -446 -256 -109 -133 -161 -266 -169
-435 -12 -226 57 -408 212 -565 256 -259 661 -292 959 -79 113 80 203 195 255
327 43 107 54 181 49 310 -9 203 -72 343 -220 490 -76 75 -103 95 -191 137
-150 73 -298 96 -449 71z m-226 -337 c10 -9 18 -23 18 -32 0 -9 -20 -73 -44
-143 l-45 -126 77 -4 c42 -3 80 -2 85 2 4 3 16 38 27 76 25 92 67 204 85 228
14 19 15 19 35 1 26 -24 25 -49 -4 -126 -33 -88 -112 -404 -130 -519 -8 -52
-18 -139 -22 -192 -4 -54 -10 -98 -15 -98 -15 0 -38 30 -50 67 -17 53 -5 202
31 363 17 74 30 136 30 137 0 6 -108 3 -138 -3 -28 -6 -32 -12 -42 -58 -6 -28
-14 -92 -17 -143 -6 -87 -7 -92 -25 -82 -69 37 -62 204 17 434 19 56 35 104
35 108 0 4 -20 -3 -44 -15 -37 -18 -47 -19 -60 -8 -27 21 -18 37 37 68 28 17
68 42 87 56 42 30 48 31 72 9z m978 -128 c11 -13 3 -24 -50 -73 -110 -100
-211 -280 -178 -319 11 -14 11 -16 -2 -11 -97 31 34 346 167 405 37 16 48 16
63 -2z m-423 -100 c43 -30 52 -109 28 -233 -31 -151 -96 -244 -161 -228 -34 9
-46 40 -42 107 1 32 0 58 -3 57 -3 -2 -26 -28 -51 -58 -38 -47 -49 -55 -78
-55 -24 0 -38 7 -53 27 l-20 27 36 111 c20 61 34 117 30 125 -7 21 10 18 41
-6 31 -24 35 -72 11 -139 -8 -24 -13 -45 -11 -48 9 -8 104 131 99 145 -7 17
17 16 39 -1 30 -22 40 -66 33 -141 -3 -38 -8 -79 -11 -90 -4 -17 -2 -16 19 6
58 64 105 297 74 372 -17 40 -13 45 20 22z m168 -379 c0 -40 -43 -73 -74 -57
-27 15 -27 31 0 65 30 38 74 33 74 -8z"/>
</g>
</svg>
